<svg width="90" height="43" viewBox="0 0 90 43" fill="none" xmlns="http://www.w3.org/2000/svg">
<path id="Vector" d="M0.301758 0.378113H7.03351V33.1302H0.301758V0.378113ZM10.845 21.9136C10.8376 19.5617 11.5283 17.2605 12.8295 15.3013C14.1308 13.3422 15.9841 11.8132 18.1549 10.9081C20.3256 10.0029 22.7162 9.76221 25.0238 10.2165C27.3314 10.6708 29.4524 11.7996 31.118 13.4601C32.7837 15.1205 33.9192 17.2378 34.3808 19.544C34.8423 21.8502 34.6092 24.2415 33.7109 26.4151C32.8126 28.5887 31.2895 30.4468 29.3344 31.7543C27.3794 33.0617 25.0804 33.7596 22.7285 33.7596C21.1664 33.7763 19.6167 33.4816 18.1698 32.8927C16.723 32.3037 15.408 31.4324 14.3016 30.3295C13.1953 29.2267 12.3198 27.9144 11.7263 26.4694C11.1328 25.0244 10.8332 23.4757 10.845 21.9136ZM27.8956 21.9136C27.8692 20.899 27.5442 19.9148 26.9614 19.084C26.3785 18.2532 25.5636 17.6127 24.6187 17.2427C23.6737 16.8726 22.6406 16.7893 21.6485 17.0034C20.6565 17.2174 19.7496 17.7192 19.0412 18.4459C18.3329 19.1727 17.8546 20.0922 17.6661 21.0894C17.4776 22.0866 17.5874 23.1172 17.9816 24.0524C18.3758 24.9876 19.037 25.7857 19.8825 26.3471C20.728 26.9084 21.7202 27.208 22.7351 27.2083C23.43 27.2281 24.1215 27.1037 24.766 26.843C25.4105 26.5822 25.9939 26.1908 26.4796 25.6933C26.9653 25.1959 27.3426 24.6032 27.5878 23.9527C27.8331 23.3021 27.9408 22.6078 27.9044 21.9136H27.8956ZM61.4531 10.6903V32.0035C61.4531 39.5407 55.5752 42.725 49.6093 42.725C47.5093 42.8835 45.4061 42.4608 43.5305 41.5032C41.6548 40.5455 40.079 39.09 38.9758 37.296L44.7173 33.9753C45.1807 34.9115 45.9189 35.684 46.8333 36.1894C47.7476 36.6947 48.7944 36.9088 49.8337 36.8031C50.4971 36.8937 51.1723 36.8342 51.8096 36.6289C52.4468 36.4237 53.0299 36.078 53.5157 35.6173C54.0015 35.1566 54.3777 34.5928 54.6164 33.9673C54.8552 33.3418 54.9505 32.6707 54.8952 32.0035V29.9393C54.1069 30.9033 53.1037 31.6692 51.966 32.1756C50.8283 32.6819 49.5878 32.9147 48.3439 32.8551C45.3828 32.7631 42.5738 31.5221 40.5117 29.395C38.4497 27.2679 37.2965 24.4217 37.2965 21.4591C37.2965 18.4966 38.4497 15.6504 40.5117 13.5233C42.5738 11.3961 45.3828 10.1551 48.3439 10.0631C49.5878 10.0036 50.8283 10.2364 51.966 10.7427C53.1037 11.2491 54.1069 12.015 54.8952 12.979V10.6903H61.4531ZM54.904 21.458C54.9484 20.3745 54.6676 19.3025 54.0978 18.3798C53.528 17.4571 52.6953 16.726 51.7067 16.2804C50.718 15.8347 49.6187 15.695 48.55 15.8791C47.4814 16.0633 46.4922 16.5628 45.7097 17.3136C44.9272 18.0644 44.3872 19.0321 44.1591 20.0923C43.9309 21.1524 44.0251 22.2566 44.4295 23.2628C44.8339 24.269 45.53 25.1312 46.4284 25.7386C47.3267 26.3461 48.3862 26.6709 49.4706 26.6714C50.1777 26.7211 50.8873 26.6222 51.5539 26.3812C52.2205 26.1402 52.8293 25.7623 53.341 25.2719C53.8528 24.7815 54.2562 24.1894 54.5254 23.5337C54.7946 22.878 54.9236 22.1732 54.904 21.4646V21.458ZM65.2646 21.8982C65.2572 19.5463 65.9479 17.245 67.2491 15.2859C68.5504 13.3268 70.4037 11.7978 72.5745 10.8926C74.7453 9.98748 77.1358 9.7468 79.4434 10.2011C81.751 10.6554 83.872 11.7842 85.5376 13.4447C87.2033 15.1051 88.3388 17.2224 88.8004 19.5286C89.262 21.8348 89.0288 24.2261 88.1305 26.3997C87.2322 28.5733 85.7091 30.4314 83.754 31.7389C81.799 33.0463 79.5 33.7442 77.1481 33.7442C75.5873 33.7609 74.0389 33.4667 72.5931 32.8787C71.1472 32.2907 69.8329 31.4207 68.7268 30.3195C67.6207 29.2183 66.7449 27.9079 66.1504 26.4647C65.556 25.0215 65.2549 23.4744 65.2646 21.9136V21.8982ZM82.3152 21.8982C82.2892 20.883 81.9644 19.8981 81.3815 19.0666C80.7986 18.2351 79.9834 17.5939 79.0379 17.2234C78.0924 16.8529 77.0586 16.7694 76.066 16.9835C75.0733 17.1975 74.1658 17.6996 73.457 18.4268C72.7483 19.154 72.2697 20.0741 72.0812 21.0719C71.8927 22.0698 72.0027 23.101 72.3973 24.0367C72.792 24.9723 73.4538 25.7708 74.3 26.3322C75.1462 26.8936 76.1392 27.193 77.1547 27.1929C77.8475 27.2113 78.5367 27.0864 79.179 26.8261C79.8214 26.5657 80.403 26.1755 80.8875 25.6799C81.372 25.1842 81.7489 24.5939 81.9945 23.9458C82.2402 23.2977 82.3494 22.6058 82.3152 21.9136V21.8982Z" fill="white"/>
</svg>
