<svg width="23" height="24" viewBox="0 0 23 24" fill="none" xmlns="http://www.w3.org/2000/svg">
<path id="Vector" d="M22.0267 0.696838V23.1301H15.2971V21.0175C14.5197 21.9482 13.5328 22.6814 12.4175 23.1573C11.3021 23.6331 10.0899 23.838 8.88006 23.7551C4.34894 23.7551 0.491211 20.5246 0.491211 14.4662V0.696838H7.22076V13.4847C7.16411 14.0194 7.2247 14.56 7.39829 15.0689C7.57189 15.5778 7.85434 16.0427 8.22595 16.4313C8.59757 16.8199 9.04942 17.1228 9.55004 17.3189C10.0507 17.515 10.588 17.5997 11.1247 17.5669C13.5916 17.5669 15.3059 16.1321 15.3059 12.9456V0.696838H22.0267Z" fill="white"/>
</svg>
