<svg width="20" height="24" viewBox="0 0 20 24" fill="none" xmlns="http://www.w3.org/2000/svg">
<path id="Vector" d="M19.4305 16.3966C19.4305 21.5571 14.9434 23.7556 10.0976 23.7556C8.13997 23.9327 6.17427 23.5184 4.45471 22.5662C2.73515 21.6141 1.34084 20.1678 0.452148 18.4146L6.28385 15.0961C6.52092 15.9065 7.02903 16.6109 7.72321 17.0916C8.4174 17.5722 9.25557 17.8 10.0976 17.7368C11.7128 17.7368 12.5183 17.2417 12.5183 16.346C12.5183 13.8769 1.48205 15.1797 1.48205 7.41583C1.48205 2.52601 5.60825 0.0590931 10.2846 0.0590931C12.0386 0.0040354 13.7753 0.42025 15.3138 1.26439C16.8523 2.10853 18.1363 3.34972 19.0321 4.85869L13.2907 7.95498C13.0395 7.3661 12.6205 6.86423 12.0859 6.512C11.5513 6.15978 10.9248 5.9728 10.2846 5.97441C9.11827 5.97441 8.40086 6.41454 8.40086 7.23097C8.39425 9.80572 19.4305 8.10023 19.4305 16.3966Z" fill="white"/>
</svg>
