<svg width="25" height="33" viewBox="0 0 25 33" fill="none" xmlns="http://www.w3.org/2000/svg">
<path id="Vector" d="M24.6581 11.9139C24.7363 13.3967 24.5206 14.8803 24.0234 16.2795C23.5261 17.6786 22.7572 18.9656 21.7608 20.0666C20.7644 21.1675 19.5602 22.0605 18.2174 22.6944C16.8747 23.3282 15.4198 23.6904 13.9366 23.7599C12.689 23.8279 11.4418 23.6174 10.2855 23.144C9.12925 22.6705 8.09272 21.9458 7.25104 21.0223V32.1048H0.521484V0.697246H7.25104V2.80545C8.09293 1.8824 9.12955 1.15812 10.2858 0.685023C11.4421 0.21193 12.6891 0.00186854 13.9366 0.0700556C15.4197 0.13936 16.8745 0.501234 18.2173 1.13485C19.56 1.76846 20.7643 2.66132 21.7607 3.76205C22.7571 4.86278 23.5261 6.14967 24.0233 7.54868C24.5206 8.94769 24.7363 10.4312 24.6581 11.9139ZM17.9285 11.9139C17.9021 10.8636 17.5665 9.84438 16.9637 8.98386C16.3609 8.12334 15.5177 7.45972 14.5397 7.07605C13.5616 6.69238 12.4921 6.60569 11.465 6.82687C10.4379 7.04804 9.49879 7.56723 8.7653 8.31946C8.03182 9.0717 7.53648 10.0236 7.3413 11.0559C7.14611 12.0883 7.25974 13.1553 7.66797 14.1234C8.0762 15.0915 8.76089 15.9176 9.63634 16.4985C10.5118 17.0794 11.5391 17.3892 12.5898 17.3891C13.3113 17.4216 14.0314 17.3011 14.703 17.0356C15.3747 16.7701 15.9825 16.3655 16.4867 15.8484C16.9909 15.3314 17.38 14.7135 17.6285 14.0354C17.877 13.3573 17.9792 12.6343 17.9285 11.9139Z" fill="white"/>
</svg>
