<svg width="35" height="24" viewBox="0 0 35 24" fill="none" xmlns="http://www.w3.org/2000/svg">
<path id="Vector" d="M34.5992 9.35382V23.1298H27.8696V9.93919C27.8696 7.69674 26.7913 6.25973 24.6391 6.25973C22.3944 6.25973 21.1401 7.83099 21.1401 10.4784V23.1298H14.4084V9.93919C14.4084 7.69674 13.3322 6.25973 11.1778 6.25973C8.93536 6.25973 7.6788 7.83099 7.6788 10.4784V23.1298H0.949219V0.696513H7.68978V2.75191C8.38723 1.83668 9.30293 1.11083 10.3532 0.64068C11.4034 0.170528 12.5548 -0.0289334 13.702 0.0605255C14.8539 0.00419924 16.0008 0.247232 17.0309 0.765947C18.061 1.28466 18.9392 2.06137 19.5798 3.02039C20.3257 2.01698 21.3138 1.21913 22.4519 0.701492C23.5899 0.183848 24.8407 -0.0366809 26.0871 0.0605255C31.2366 0.069328 34.5992 3.74659 34.5992 9.35382Z" fill="white"/>
</svg>
