<svg width="9" height="34" viewBox="0 0 9 34" fill="none" xmlns="http://www.w3.org/2000/svg">
<path id="Vector" d="M0.182617 4.6849C0.182617 3.88623 0.419444 3.10549 0.863165 2.44142C1.30688 1.77734 1.93757 1.25975 2.67544 0.954114C3.41332 0.648474 4.22528 0.56851 5.0086 0.724324C5.79193 0.880138 6.51145 1.26474 7.0762 1.82949C7.64095 2.39424 8.02556 3.11377 8.18137 3.89709C8.33719 4.68042 8.25722 5.49237 7.95158 6.23024C7.64594 6.96812 7.12835 7.5988 6.46427 8.04252C5.8002 8.48624 5.01946 8.72307 4.22079 8.72307C3.15317 8.71219 2.13237 8.28324 1.37741 7.52829C0.622454 6.77333 0.193503 5.75252 0.182617 4.6849ZM0.856012 10.6971H7.58776V33.1304H0.856012V10.6971Z" fill="white"/>
</svg>
